<mxfile host="65bd71144e">
    <diagram id="MhuEaP-jnduQYLcmVyun" name="Bounded Contexts">
        <mxGraphModel dx="1363" dy="1579" grid="1" gridSize="10" guides="1" tooltips="1" connect="1" arrows="1" fold="1" page="0" pageScale="1" pageWidth="850" pageHeight="1100" math="0" shadow="0">
            <root>
                <mxCell id="0"/>
                <mxCell id="1" parent="0"/>
                <mxCell id="4" value="Product Catalog" style="swimlane;startSize=0;swimlaneLine=1;rounded=1;strokeWidth=2;dashed=1;dashPattern=8 8;collapsible=0;labelPosition=center;verticalLabelPosition=top;align=center;verticalAlign=bottom;fontSize=16;fontStyle=1;spacingBottom=5;" parent="1" vertex="1">
                    <mxGeometry x="40" y="120" width="320" height="100" as="geometry"/>
                </mxCell>
                <mxCell id="24" style="edgeStyle=none;html=1;fontSize=12;fillColor=default;" parent="4" source="10" target="23" edge="1">
                    <mxGeometry relative="1" as="geometry"/>
                </mxCell>
                <mxCell id="10" value="Product" style="rounded=1;whiteSpace=wrap;html=1;sketch=0;strokeWidth=1;fontSize=16;" parent="4" vertex="1">
                    <mxGeometry x="180" y="20" width="120" height="60" as="geometry"/>
                </mxCell>
                <mxCell id="23" value="..." style="rounded=1;whiteSpace=wrap;html=1;sketch=0;strokeWidth=1;fontSize=16;" parent="4" vertex="1">
                    <mxGeometry x="20" y="20" width="120" height="60" as="geometry"/>
                </mxCell>
                <mxCell id="5" value="Shopping Basket" style="swimlane;startSize=0;swimlaneLine=1;rounded=1;strokeWidth=2;dashed=1;dashPattern=8 8;collapsible=0;labelPosition=center;verticalLabelPosition=top;align=center;verticalAlign=bottom;fontSize=16;fontStyle=1;spacingBottom=5;" parent="1" vertex="1">
                    <mxGeometry x="400" y="120" width="160" height="300" as="geometry"/>
                </mxCell>
                <mxCell id="11" value="Product" style="rounded=1;whiteSpace=wrap;html=1;sketch=0;strokeWidth=1;fontSize=16;" parent="5" vertex="1">
                    <mxGeometry x="20" y="20" width="120" height="60" as="geometry"/>
                </mxCell>
                <mxCell id="15" style="edgeStyle=none;html=1;fontSize=12;" parent="5" source="2" target="11" edge="1">
                    <mxGeometry relative="1" as="geometry"/>
                </mxCell>
                <mxCell id="18" style="edgeStyle=none;html=1;fontSize=12;fillColor=default;opacity=50;" parent="5" source="2" target="17" edge="1">
                    <mxGeometry relative="1" as="geometry"/>
                </mxCell>
                <mxCell id="2" value="BasketItem" style="rounded=1;whiteSpace=wrap;html=1;fontSize=16;" parent="5" vertex="1">
                    <mxGeometry x="20" y="120" width="120" height="60" as="geometry"/>
                </mxCell>
                <mxCell id="17" value="Customer" style="rounded=1;whiteSpace=wrap;html=1;opacity=50;textOpacity=50;fontSize=16;" parent="5" vertex="1">
                    <mxGeometry x="20" y="220" width="120" height="60" as="geometry"/>
                </mxCell>
                <mxCell id="6" value="Customer Management" style="swimlane;startSize=0;swimlaneLine=1;rounded=1;strokeWidth=2;dashed=1;dashPattern=8 8;collapsible=0;labelPosition=center;verticalLabelPosition=top;align=center;verticalAlign=bottom;fontSize=16;fontStyle=1;spacingBottom=5;opacity=50;textOpacity=50;" parent="1" vertex="1">
                    <mxGeometry x="40" y="320" width="320" height="100" as="geometry"/>
                </mxCell>
                <mxCell id="20" value="..." style="rounded=1;whiteSpace=wrap;html=1;opacity=50;fontSize=16;" parent="6" vertex="1">
                    <mxGeometry x="20" y="20" width="120" height="60" as="geometry"/>
                </mxCell>
                <mxCell id="19" value="Customer" style="rounded=1;whiteSpace=wrap;html=1;opacity=50;textOpacity=50;fontSize=16;" parent="6" vertex="1">
                    <mxGeometry x="180" y="20" width="120" height="60" as="geometry"/>
                </mxCell>
                <mxCell id="21" style="edgeStyle=none;html=1;fontSize=12;fillColor=default;opacity=50;" parent="6" source="19" target="20" edge="1">
                    <mxGeometry relative="1" as="geometry"/>
                </mxCell>
                <mxCell id="16" value="" style="shape=flexArrow;endArrow=classic;startArrow=classic;html=1;fontSize=12;fillColor=default;width=11.666666666666666;startSize=9.444444444444445;endSize=9.444444444444445;" parent="1" source="10" target="11" edge="1">
                    <mxGeometry width="100" height="100" relative="1" as="geometry">
                        <mxPoint x="330" y="70" as="sourcePoint"/>
                        <mxPoint x="430" y="-30" as="targetPoint"/>
                    </mxGeometry>
                </mxCell>
                <mxCell id="22" value="" style="shape=flexArrow;endArrow=classic;startArrow=classic;html=1;fontSize=12;fillColor=default;width=11.666666666666666;startSize=9.444444444444445;endSize=9.444444444444445;opacity=50;" parent="1" source="19" target="17" edge="1">
                    <mxGeometry width="100" height="100" relative="1" as="geometry">
                        <mxPoint x="350" y="180" as="sourcePoint"/>
                        <mxPoint x="430" y="180" as="targetPoint"/>
                    </mxGeometry>
                </mxCell>
                <mxCell id="25" value="" style="endArrow=none;html=1;fontSize=12;fillColor=default;opacity=50;" parent="1" edge="1">
                    <mxGeometry width="50" height="50" relative="1" as="geometry">
                        <mxPoint x="-220" y="-460" as="sourcePoint"/>
                        <mxPoint x="-170" y="-510" as="targetPoint"/>
                    </mxGeometry>
                </mxCell>
                <mxCell id="26" value="" style="endArrow=none;html=1;fontSize=12;fillColor=default;opacity=50;" parent="1" edge="1">
                    <mxGeometry width="50" height="50" relative="1" as="geometry">
                        <mxPoint x="790" y="560" as="sourcePoint"/>
                        <mxPoint x="840" y="510" as="targetPoint"/>
                    </mxGeometry>
                </mxCell>
                <mxCell id="27" style="edgeStyle=none;html=1;fontSize=12;fillColor=default;" parent="1" source="30" target="29" edge="1">
                    <mxGeometry relative="1" as="geometry">
                        <mxPoint x="200" y="-320" as="sourcePoint"/>
                    </mxGeometry>
                </mxCell>
                <mxCell id="29" value="..." style="rounded=1;whiteSpace=wrap;html=1;sketch=0;strokeWidth=1;fontSize=16;" parent="1" vertex="1">
                    <mxGeometry x="40" y="-350" width="120" height="60" as="geometry"/>
                </mxCell>
                <mxCell id="30" value="Product" style="rounded=1;whiteSpace=wrap;html=1;sketch=0;strokeWidth=1;fontSize=16;" parent="1" vertex="1">
                    <mxGeometry x="200" y="-350" width="120" height="60" as="geometry"/>
                </mxCell>
                <mxCell id="31" style="edgeStyle=none;html=1;fontSize=12;" parent="1" source="33" target="30" edge="1">
                    <mxGeometry relative="1" as="geometry"/>
                </mxCell>
                <mxCell id="32" style="edgeStyle=none;html=1;fontSize=12;fillColor=default;" parent="1" source="33" target="34" edge="1">
                    <mxGeometry relative="1" as="geometry"/>
                </mxCell>
                <mxCell id="33" value="BasketItem" style="rounded=1;whiteSpace=wrap;html=1;fontSize=16;" parent="1" vertex="1">
                    <mxGeometry x="360" y="-350" width="120" height="60" as="geometry"/>
                </mxCell>
                <mxCell id="34" value="Customer" style="rounded=1;whiteSpace=wrap;html=1;fontSize=16;" parent="1" vertex="1">
                    <mxGeometry x="520" y="-350" width="120" height="60" as="geometry"/>
                </mxCell>
                <mxCell id="40" value="600px width (MAX)" style="rounded=0;whiteSpace=wrap;html=1;align=center;fontStyle=1" parent="1" vertex="1">
                    <mxGeometry x="40" y="-250" width="600" height="30" as="geometry"/>
                </mxCell>
            </root>
        </mxGraphModel>
    </diagram>
    <diagram id="7rJv5cmOjjFjpSkRqAou" name="Aggregator">
        <mxGraphModel dx="963" dy="1579" grid="1" gridSize="10" guides="1" tooltips="1" connect="1" arrows="1" fold="1" page="0" pageScale="1" pageWidth="850" pageHeight="1100" math="0" shadow="0">
            <root>
                <mxCell id="0"/>
                <mxCell id="1" parent="0"/>
                <mxCell id="XrYJ3qdKqW5Ywmm_-LEQ-1" value="SQL Server Database" style="shape=cylinder3;whiteSpace=wrap;html=1;boundedLbl=1;backgroundOutline=1;size=14.956521739130523;rounded=0;labelBackgroundColor=none;sketch=0;strokeColor=default;strokeWidth=1;fontSize=12;fillColor=default;labelPosition=center;verticalLabelPosition=top;align=center;verticalAlign=bottom;" parent="1" vertex="1">
                    <mxGeometry x="1260" y="110" width="80" height="260" as="geometry"/>
                </mxCell>
                <mxCell id="XrYJ3qdKqW5Ywmm_-LEQ-2" value="600px width (MAX)" style="rounded=0;whiteSpace=wrap;html=1;align=center;fontStyle=1" parent="1" vertex="1">
                    <mxGeometry x="720" y="-510" width="600" height="30" as="geometry"/>
                </mxCell>
                <mxCell id="XrYJ3qdKqW5Ywmm_-LEQ-3" style="edgeStyle=elbowEdgeStyle;html=1;entryX=0;entryY=0.5;entryDx=0;entryDy=0;fontSize=12;fillColor=default;rounded=1;" parent="1" source="XrYJ3qdKqW5Ywmm_-LEQ-7" target="XrYJ3qdKqW5Ywmm_-LEQ-10" edge="1">
                    <mxGeometry relative="1" as="geometry"/>
                </mxCell>
                <mxCell id="XrYJ3qdKqW5Ywmm_-LEQ-4" style="edgeStyle=elbowEdgeStyle;html=1;entryX=0;entryY=0.5;entryDx=0;entryDy=0;fontSize=12;fillColor=default;rounded=1;" parent="1" source="XrYJ3qdKqW5Ywmm_-LEQ-7" target="XrYJ3qdKqW5Ywmm_-LEQ-13" edge="1">
                    <mxGeometry relative="1" as="geometry"/>
                </mxCell>
                <mxCell id="XrYJ3qdKqW5Ywmm_-LEQ-5" style="edgeStyle=elbowEdgeStyle;html=1;entryX=0;entryY=0.5;entryDx=0;entryDy=0;fontSize=12;fillColor=default;rounded=1;" parent="1" source="XrYJ3qdKqW5Ywmm_-LEQ-7" target="XrYJ3qdKqW5Ywmm_-LEQ-16" edge="1">
                    <mxGeometry relative="1" as="geometry"/>
                </mxCell>
                <mxCell id="XrYJ3qdKqW5Ywmm_-LEQ-6" style="edgeStyle=elbowEdgeStyle;html=1;entryX=0;entryY=0.5;entryDx=0;entryDy=0;fontSize=12;fillColor=default;rounded=1;" parent="1" source="XrYJ3qdKqW5Ywmm_-LEQ-7" target="XrYJ3qdKqW5Ywmm_-LEQ-19" edge="1">
                    <mxGeometry relative="1" as="geometry"/>
                </mxCell>
                <mxCell id="XrYJ3qdKqW5Ywmm_-LEQ-7" value="Aggregator&lt;br&gt;(API)" style="shape=hexagon;perimeter=hexagonPerimeter2;whiteSpace=wrap;html=1;fixedSize=1;rounded=0;sketch=0;strokeWidth=1;fontSize=12;strokeColor=default;" parent="1" vertex="1">
                    <mxGeometry x="910" y="-360" width="90" height="80" as="geometry"/>
                </mxCell>
                <mxCell id="XrYJ3qdKqW5Ywmm_-LEQ-8" style="edgeStyle=none;html=1;entryX=-0.001;entryY=0.124;entryDx=0;entryDy=0;entryPerimeter=0;fontSize=12;fillColor=default;startArrow=classic;startFill=1;" parent="1" source="XrYJ3qdKqW5Ywmm_-LEQ-10" target="XrYJ3qdKqW5Ywmm_-LEQ-20" edge="1">
                    <mxGeometry relative="1" as="geometry"/>
                </mxCell>
                <mxCell id="XrYJ3qdKqW5Ywmm_-LEQ-9" value="Integrates" style="edgeLabel;html=1;align=center;verticalAlign=middle;resizable=0;points=[];fontSize=11;" parent="XrYJ3qdKqW5Ywmm_-LEQ-8" vertex="1" connectable="0">
                    <mxGeometry x="0.28" y="1" relative="1" as="geometry">
                        <mxPoint x="-11" y="1" as="offset"/>
                    </mxGeometry>
                </mxCell>
                <mxCell id="XrYJ3qdKqW5Ywmm_-LEQ-10" value="Catalog" style="rounded=0;whiteSpace=wrap;html=1;sketch=0;strokeColor=default;strokeWidth=1;fontSize=12;" parent="1" vertex="1">
                    <mxGeometry x="1080" y="-400" width="120" height="40" as="geometry"/>
                </mxCell>
                <mxCell id="XrYJ3qdKqW5Ywmm_-LEQ-11" style="edgeStyle=none;html=1;entryX=-0.001;entryY=0.372;entryDx=0;entryDy=0;entryPerimeter=0;fontSize=12;fillColor=default;startArrow=classic;startFill=1;" parent="1" source="XrYJ3qdKqW5Ywmm_-LEQ-13" target="XrYJ3qdKqW5Ywmm_-LEQ-20" edge="1">
                    <mxGeometry relative="1" as="geometry"/>
                </mxCell>
                <mxCell id="XrYJ3qdKqW5Ywmm_-LEQ-12" value="Integrates" style="edgeLabel;html=1;align=center;verticalAlign=middle;resizable=0;points=[];fontSize=11;" parent="XrYJ3qdKqW5Ywmm_-LEQ-11" vertex="1" connectable="0">
                    <mxGeometry x="0.3233" y="-2" relative="1" as="geometry">
                        <mxPoint x="-13" y="-2" as="offset"/>
                    </mxGeometry>
                </mxCell>
                <mxCell id="XrYJ3qdKqW5Ywmm_-LEQ-13" value="Shopping Cart" style="rounded=0;whiteSpace=wrap;html=1;sketch=0;strokeColor=default;strokeWidth=1;fontSize=12;" parent="1" vertex="1">
                    <mxGeometry x="1080" y="-360" width="120" height="40" as="geometry"/>
                </mxCell>
                <mxCell id="XrYJ3qdKqW5Ywmm_-LEQ-14" style="edgeStyle=none;html=1;fontSize=12;fillColor=default;startArrow=classic;startFill=1;" parent="1" source="XrYJ3qdKqW5Ywmm_-LEQ-16" edge="1">
                    <mxGeometry relative="1" as="geometry">
                        <mxPoint x="1279.9999999999995" y="-300" as="targetPoint"/>
                    </mxGeometry>
                </mxCell>
                <mxCell id="XrYJ3qdKqW5Ywmm_-LEQ-15" value="Integrates" style="edgeLabel;html=1;align=center;verticalAlign=middle;resizable=0;points=[];fontSize=11;" parent="XrYJ3qdKqW5Ywmm_-LEQ-14" vertex="1" connectable="0">
                    <mxGeometry x="0.3011" y="-2" relative="1" as="geometry">
                        <mxPoint x="-12" y="-2" as="offset"/>
                    </mxGeometry>
                </mxCell>
                <mxCell id="XrYJ3qdKqW5Ywmm_-LEQ-16" value="Customer management" style="rounded=0;whiteSpace=wrap;html=1;sketch=0;strokeColor=default;strokeWidth=1;fontSize=12;" parent="1" vertex="1">
                    <mxGeometry x="1080" y="-320" width="120" height="40" as="geometry"/>
                </mxCell>
                <mxCell id="XrYJ3qdKqW5Ywmm_-LEQ-17" style="edgeStyle=none;html=1;entryX=-0.018;entryY=0.877;entryDx=0;entryDy=0;entryPerimeter=0;fontSize=12;fillColor=default;startArrow=classic;startFill=1;" parent="1" source="XrYJ3qdKqW5Ywmm_-LEQ-19" target="XrYJ3qdKqW5Ywmm_-LEQ-20" edge="1">
                    <mxGeometry relative="1" as="geometry">
                        <Array as="points">
                            <mxPoint x="1250" y="-260"/>
                        </Array>
                    </mxGeometry>
                </mxCell>
                <mxCell id="XrYJ3qdKqW5Ywmm_-LEQ-18" value="Integrates" style="edgeLabel;html=1;align=center;verticalAlign=middle;resizable=0;points=[];fontSize=11;" parent="XrYJ3qdKqW5Ywmm_-LEQ-17" vertex="1" connectable="0">
                    <mxGeometry x="-0.1697" y="-3" relative="1" as="geometry">
                        <mxPoint x="7" y="-3" as="offset"/>
                    </mxGeometry>
                </mxCell>
                <mxCell id="XrYJ3qdKqW5Ywmm_-LEQ-19" value="..." style="rounded=0;whiteSpace=wrap;html=1;sketch=0;strokeColor=default;strokeWidth=1;fontSize=12;" parent="1" vertex="1">
                    <mxGeometry x="1080" y="-280" width="120" height="40" as="geometry"/>
                </mxCell>
                <mxCell id="XrYJ3qdKqW5Ywmm_-LEQ-20" value="Event Broker" style="shape=cylinder3;whiteSpace=wrap;html=1;boundedLbl=1;backgroundOutline=1;size=10.263157894736992;rounded=0;sketch=0;strokeColor=default;strokeWidth=1;fontSize=12;horizontal=0;" parent="1" vertex="1">
                    <mxGeometry x="1280" y="-400" width="40" height="160" as="geometry"/>
                </mxCell>
                <mxCell id="XrYJ3qdKqW5Ywmm_-LEQ-21" value="References" style="text;html=1;align=center;verticalAlign=middle;resizable=0;points=[];autosize=1;strokeColor=none;fillColor=none;fontSize=11;rounded=0;sketch=0;strokeWidth=1;rotation=270;labelBackgroundColor=default;" parent="1" vertex="1">
                    <mxGeometry x="1000" y="-335" width="80" height="30" as="geometry"/>
                </mxCell>
                <mxCell id="XrYJ3qdKqW5Ywmm_-LEQ-22" value="Assemblies&lt;br&gt;(modules)" style="text;html=1;align=center;verticalAlign=middle;resizable=0;points=[];autosize=1;strokeColor=none;fillColor=none;fontSize=12;rounded=0;sketch=0;strokeWidth=1;" parent="1" vertex="1">
                    <mxGeometry x="1100" y="-440" width="80" height="40" as="geometry"/>
                </mxCell>
                <mxCell id="XrYJ3qdKqW5Ywmm_-LEQ-23" style="edgeStyle=elbowEdgeStyle;rounded=1;html=1;fontSize=12;startArrow=none;startFill=0;fillColor=default;" parent="1" source="XrYJ3qdKqW5Ywmm_-LEQ-25" target="XrYJ3qdKqW5Ywmm_-LEQ-7" edge="1">
                    <mxGeometry relative="1" as="geometry"/>
                </mxCell>
                <mxCell id="XrYJ3qdKqW5Ywmm_-LEQ-24" value="Sends Requests to" style="edgeLabel;html=1;align=center;verticalAlign=middle;resizable=0;points=[];fontSize=11;" parent="XrYJ3qdKqW5Ywmm_-LEQ-23" vertex="1" connectable="0">
                    <mxGeometry x="-0.362" relative="1" as="geometry">
                        <mxPoint x="26" as="offset"/>
                    </mxGeometry>
                </mxCell>
                <mxCell id="XrYJ3qdKqW5Ywmm_-LEQ-25" value="Client" style="sketch=0;pointerEvents=1;shadow=0;dashed=0;html=1;strokeColor=default;fillColor=default;aspect=fixed;labelPosition=center;verticalLabelPosition=bottom;verticalAlign=top;align=center;outlineConnect=0;shape=mxgraph.vvd.web_browser;rounded=0;labelBackgroundColor=default;strokeWidth=1;fontSize=12;" parent="1" vertex="1">
                    <mxGeometry x="720" y="-337.75" width="50" height="35.5" as="geometry"/>
                </mxCell>
                <mxCell id="XrYJ3qdKqW5Ywmm_-LEQ-26" style="edgeStyle=elbowEdgeStyle;html=1;entryX=0;entryY=0.5;entryDx=0;entryDy=0;fontSize=12;fillColor=default;rounded=1;" parent="1" source="XrYJ3qdKqW5Ywmm_-LEQ-29" target="XrYJ3qdKqW5Ywmm_-LEQ-31" edge="1">
                    <mxGeometry relative="1" as="geometry"/>
                </mxCell>
                <mxCell id="XrYJ3qdKqW5Ywmm_-LEQ-27" style="edgeStyle=elbowEdgeStyle;html=1;entryX=0;entryY=0.5;entryDx=0;entryDy=0;fontSize=12;fillColor=default;rounded=1;" parent="1" source="XrYJ3qdKqW5Ywmm_-LEQ-29" target="XrYJ3qdKqW5Ywmm_-LEQ-33" edge="1">
                    <mxGeometry relative="1" as="geometry"/>
                </mxCell>
                <mxCell id="XrYJ3qdKqW5Ywmm_-LEQ-28" style="edgeStyle=elbowEdgeStyle;html=1;entryX=0;entryY=0.5;entryDx=0;entryDy=0;fontSize=12;fillColor=default;rounded=1;" parent="1" source="XrYJ3qdKqW5Ywmm_-LEQ-29" target="XrYJ3qdKqW5Ywmm_-LEQ-35" edge="1">
                    <mxGeometry relative="1" as="geometry"/>
                </mxCell>
                <mxCell id="XrYJ3qdKqW5Ywmm_-LEQ-29" value="Aggregator&lt;br&gt;(API)" style="shape=hexagon;perimeter=hexagonPerimeter2;whiteSpace=wrap;html=1;fixedSize=1;rounded=0;sketch=0;strokeWidth=1;fontSize=12;strokeColor=default;" parent="1" vertex="1">
                    <mxGeometry x="910" y="-80" width="90" height="80" as="geometry"/>
                </mxCell>
                <mxCell id="XrYJ3qdKqW5Ywmm_-LEQ-30" style="edgeStyle=elbowEdgeStyle;rounded=1;html=1;fontSize=11;startArrow=none;startFill=0;fillColor=default;" parent="1" source="XrYJ3qdKqW5Ywmm_-LEQ-31" target="XrYJ3qdKqW5Ywmm_-LEQ-38" edge="1">
                    <mxGeometry relative="1" as="geometry">
                        <mxPoint x="1280" y="-100" as="targetPoint"/>
                    </mxGeometry>
                </mxCell>
                <mxCell id="XrYJ3qdKqW5Ywmm_-LEQ-31" value="Catalog" style="rounded=0;whiteSpace=wrap;html=1;sketch=0;strokeColor=default;strokeWidth=1;fontSize=12;" parent="1" vertex="1">
                    <mxGeometry x="1080" y="-120" width="120" height="40" as="geometry"/>
                </mxCell>
                <mxCell id="XrYJ3qdKqW5Ywmm_-LEQ-32" style="edgeStyle=elbowEdgeStyle;rounded=1;html=1;fontSize=11;startArrow=none;startFill=0;fillColor=default;" parent="1" source="XrYJ3qdKqW5Ywmm_-LEQ-33" target="XrYJ3qdKqW5Ywmm_-LEQ-38" edge="1">
                    <mxGeometry relative="1" as="geometry"/>
                </mxCell>
                <mxCell id="XrYJ3qdKqW5Ywmm_-LEQ-33" value="Basket" style="rounded=0;whiteSpace=wrap;html=1;sketch=0;strokeColor=default;strokeWidth=1;fontSize=12;" parent="1" vertex="1">
                    <mxGeometry x="1080" y="-60" width="120" height="40" as="geometry"/>
                </mxCell>
                <mxCell id="XrYJ3qdKqW5Ywmm_-LEQ-34" style="edgeStyle=elbowEdgeStyle;rounded=1;html=1;fontSize=11;startArrow=none;startFill=0;fillColor=default;" parent="1" source="XrYJ3qdKqW5Ywmm_-LEQ-35" target="XrYJ3qdKqW5Ywmm_-LEQ-38" edge="1">
                    <mxGeometry relative="1" as="geometry"/>
                </mxCell>
                <mxCell id="XrYJ3qdKqW5Ywmm_-LEQ-35" value="..." style="rounded=0;whiteSpace=wrap;html=1;sketch=0;strokeColor=default;strokeWidth=1;fontSize=12;" parent="1" vertex="1">
                    <mxGeometry x="1080" width="120" height="40" as="geometry"/>
                </mxCell>
                <mxCell id="XrYJ3qdKqW5Ywmm_-LEQ-36" value="References" style="text;html=1;align=center;verticalAlign=middle;resizable=0;points=[];autosize=1;strokeColor=none;fillColor=none;fontSize=11;rounded=0;sketch=0;strokeWidth=1;rotation=270;labelBackgroundColor=default;" parent="1" vertex="1">
                    <mxGeometry x="1000" y="-55" width="80" height="30" as="geometry"/>
                </mxCell>
                <mxCell id="XrYJ3qdKqW5Ywmm_-LEQ-37" value="Assemblies&lt;br&gt;(modules)" style="text;html=1;align=center;verticalAlign=middle;resizable=0;points=[];autosize=1;strokeColor=none;fillColor=none;fontSize=12;rounded=0;sketch=0;strokeWidth=1;" parent="1" vertex="1">
                    <mxGeometry x="1100" y="-160" width="80" height="40" as="geometry"/>
                </mxCell>
                <mxCell id="XrYJ3qdKqW5Ywmm_-LEQ-38" value="DB" style="shape=cylinder3;whiteSpace=wrap;html=1;boundedLbl=1;backgroundOutline=1;size=6.69565217391326;rounded=0;labelBackgroundColor=default;sketch=0;strokeColor=default;strokeWidth=1;fontSize=11;fillColor=default;" parent="1" vertex="1">
                    <mxGeometry x="1280" y="-70" width="40" height="60" as="geometry"/>
                </mxCell>
                <mxCell id="XrYJ3qdKqW5Ywmm_-LEQ-39" style="edgeStyle=elbowEdgeStyle;html=1;entryX=0;entryY=0.5;entryDx=0;entryDy=0;fontSize=12;fillColor=default;rounded=1;" parent="1" source="XrYJ3qdKqW5Ywmm_-LEQ-42" target="XrYJ3qdKqW5Ywmm_-LEQ-44" edge="1">
                    <mxGeometry relative="1" as="geometry"/>
                </mxCell>
                <mxCell id="XrYJ3qdKqW5Ywmm_-LEQ-40" style="edgeStyle=elbowEdgeStyle;html=1;entryX=0;entryY=0.5;entryDx=0;entryDy=0;fontSize=12;fillColor=default;rounded=1;" parent="1" source="XrYJ3qdKqW5Ywmm_-LEQ-42" target="XrYJ3qdKqW5Ywmm_-LEQ-46" edge="1">
                    <mxGeometry relative="1" as="geometry"/>
                </mxCell>
                <mxCell id="XrYJ3qdKqW5Ywmm_-LEQ-41" style="edgeStyle=elbowEdgeStyle;html=1;entryX=0;entryY=0.5;entryDx=0;entryDy=0;fontSize=12;fillColor=default;rounded=1;" parent="1" source="XrYJ3qdKqW5Ywmm_-LEQ-42" target="XrYJ3qdKqW5Ywmm_-LEQ-48" edge="1">
                    <mxGeometry relative="1" as="geometry"/>
                </mxCell>
                <mxCell id="XrYJ3qdKqW5Ywmm_-LEQ-42" value="Aggregator&lt;br&gt;(API)" style="shape=hexagon;perimeter=hexagonPerimeter2;whiteSpace=wrap;html=1;fixedSize=1;rounded=0;sketch=0;strokeWidth=1;fontSize=12;strokeColor=default;" parent="1" vertex="1">
                    <mxGeometry x="910" y="210" width="90" height="80" as="geometry"/>
                </mxCell>
                <mxCell id="XrYJ3qdKqW5Ywmm_-LEQ-43" style="edgeStyle=elbowEdgeStyle;rounded=1;html=1;fontSize=11;startArrow=none;startFill=0;fillColor=default;" parent="1" source="XrYJ3qdKqW5Ywmm_-LEQ-44" target="XrYJ3qdKqW5Ywmm_-LEQ-51" edge="1">
                    <mxGeometry relative="1" as="geometry">
                        <mxPoint x="1280" y="180" as="targetPoint"/>
                    </mxGeometry>
                </mxCell>
                <mxCell id="XrYJ3qdKqW5Ywmm_-LEQ-44" value="Catalog" style="rounded=0;whiteSpace=wrap;html=1;sketch=0;strokeColor=default;strokeWidth=1;fontSize=12;" parent="1" vertex="1">
                    <mxGeometry x="1080" y="160" width="120" height="40" as="geometry"/>
                </mxCell>
                <mxCell id="XrYJ3qdKqW5Ywmm_-LEQ-45" style="edgeStyle=elbowEdgeStyle;rounded=1;html=1;fontSize=11;startArrow=none;startFill=0;fillColor=default;" parent="1" source="XrYJ3qdKqW5Ywmm_-LEQ-46" target="XrYJ3qdKqW5Ywmm_-LEQ-52" edge="1">
                    <mxGeometry relative="1" as="geometry"/>
                </mxCell>
                <mxCell id="XrYJ3qdKqW5Ywmm_-LEQ-46" value="Basket" style="rounded=0;whiteSpace=wrap;html=1;sketch=0;strokeColor=default;strokeWidth=1;fontSize=12;" parent="1" vertex="1">
                    <mxGeometry x="1080" y="230" width="120" height="40" as="geometry"/>
                </mxCell>
                <mxCell id="XrYJ3qdKqW5Ywmm_-LEQ-47" style="edgeStyle=elbowEdgeStyle;rounded=1;html=1;fontSize=11;startArrow=none;startFill=0;fillColor=default;" parent="1" source="XrYJ3qdKqW5Ywmm_-LEQ-48" target="XrYJ3qdKqW5Ywmm_-LEQ-53" edge="1">
                    <mxGeometry relative="1" as="geometry"/>
                </mxCell>
                <mxCell id="XrYJ3qdKqW5Ywmm_-LEQ-48" value="..." style="rounded=0;whiteSpace=wrap;html=1;sketch=0;strokeColor=default;strokeWidth=1;fontSize=12;" parent="1" vertex="1">
                    <mxGeometry x="1080" y="300" width="120" height="40" as="geometry"/>
                </mxCell>
                <mxCell id="XrYJ3qdKqW5Ywmm_-LEQ-49" value="References" style="text;html=1;align=center;verticalAlign=middle;resizable=0;points=[];autosize=1;strokeColor=none;fillColor=none;fontSize=11;rounded=0;sketch=0;strokeWidth=1;rotation=270;labelBackgroundColor=default;" parent="1" vertex="1">
                    <mxGeometry x="1000" y="225" width="80" height="30" as="geometry"/>
                </mxCell>
                <mxCell id="XrYJ3qdKqW5Ywmm_-LEQ-50" value="Assemblies&lt;br&gt;(modules)" style="text;html=1;align=center;verticalAlign=middle;resizable=0;points=[];autosize=1;strokeColor=none;fillColor=none;fontSize=12;rounded=0;sketch=0;strokeWidth=1;" parent="1" vertex="1">
                    <mxGeometry x="1100" y="120" width="80" height="40" as="geometry"/>
                </mxCell>
                <mxCell id="XrYJ3qdKqW5Ywmm_-LEQ-51" value="schema" style="shape=cylinder3;whiteSpace=wrap;html=1;boundedLbl=1;backgroundOutline=1;size=6.69565217391326;rounded=0;labelBackgroundColor=default;sketch=0;strokeColor=default;strokeWidth=1;fontSize=11;fillColor=default;" parent="1" vertex="1">
                    <mxGeometry x="1280" y="150" width="40" height="60" as="geometry"/>
                </mxCell>
                <mxCell id="XrYJ3qdKqW5Ywmm_-LEQ-52" value="schema" style="shape=cylinder3;whiteSpace=wrap;html=1;boundedLbl=1;backgroundOutline=1;size=6.69565217391326;rounded=0;labelBackgroundColor=default;sketch=0;strokeColor=default;strokeWidth=1;fontSize=11;fillColor=default;" parent="1" vertex="1">
                    <mxGeometry x="1280" y="220" width="40" height="60" as="geometry"/>
                </mxCell>
                <mxCell id="XrYJ3qdKqW5Ywmm_-LEQ-53" value="schema" style="shape=cylinder3;whiteSpace=wrap;html=1;boundedLbl=1;backgroundOutline=1;size=6.69565217391326;rounded=0;labelBackgroundColor=default;sketch=0;strokeColor=default;strokeWidth=1;fontSize=11;fillColor=default;" parent="1" vertex="1">
                    <mxGeometry x="1280" y="290" width="40" height="60" as="geometry"/>
                </mxCell>
                <mxCell id="L7eFYtwbmR5_d2CENoM2-1" value="" style="endArrow=none;html=1;rounded=1;fontSize=12;fillColor=default;" parent="1" edge="1">
                    <mxGeometry width="50" height="50" relative="1" as="geometry">
                        <mxPoint x="210" y="-750" as="sourcePoint"/>
                        <mxPoint x="260" y="-800" as="targetPoint"/>
                    </mxGeometry>
                </mxCell>
                <mxCell id="L7eFYtwbmR5_d2CENoM2-2" value="" style="endArrow=none;html=1;rounded=1;fontSize=12;fillColor=default;" parent="1" edge="1">
                    <mxGeometry width="50" height="50" relative="1" as="geometry">
                        <mxPoint x="1840" y="770" as="sourcePoint"/>
                        <mxPoint x="1890" y="720" as="targetPoint"/>
                    </mxGeometry>
                </mxCell>
            </root>
        </mxGraphModel>
    </diagram>
    <diagram id="Hxj-T61HfkFF8Wm9pOAE" name="Integration Events">
        <mxGraphModel dx="1363" dy="779" grid="1" gridSize="10" guides="1" tooltips="1" connect="1" arrows="1" fold="1" page="0" pageScale="1" pageWidth="850" pageHeight="1100" math="0" shadow="0">
            <root>
                <mxCell id="0"/>
                <mxCell id="1" parent="0"/>
                <mxCell id="EoahKKzWSE7YidUb9Kir-1" style="edgeStyle=elbowEdgeStyle;rounded=1;html=1;fontSize=12;startArrow=none;startFill=0;fillColor=default;" parent="1" source="EoahKKzWSE7YidUb9Kir-3" target="EoahKKzWSE7YidUb9Kir-6" edge="1">
                    <mxGeometry relative="1" as="geometry"/>
                </mxCell>
                <mxCell id="EoahKKzWSE7YidUb9Kir-2" value="ProductCreated" style="edgeLabel;html=1;align=center;verticalAlign=middle;resizable=0;points=[];fontSize=12;" parent="EoahKKzWSE7YidUb9Kir-1" vertex="1" connectable="0">
                    <mxGeometry x="-0.2241" y="2" relative="1" as="geometry">
                        <mxPoint x="13" y="2" as="offset"/>
                    </mxGeometry>
                </mxCell>
                <mxCell id="EoahKKzWSE7YidUb9Kir-3" value="Catalog" style="shape=hexagon;perimeter=hexagonPerimeter2;whiteSpace=wrap;html=1;fixedSize=1;rounded=0;labelBackgroundColor=none;sketch=0;strokeColor=default;strokeWidth=1;fontSize=12;fillColor=default;" parent="1" vertex="1">
                    <mxGeometry x="80" y="540" width="90" height="80" as="geometry"/>
                </mxCell>
                <mxCell id="EoahKKzWSE7YidUb9Kir-4" style="edgeStyle=elbowEdgeStyle;rounded=1;html=1;fontSize=12;startArrow=none;startFill=0;fillColor=default;" parent="1" source="EoahKKzWSE7YidUb9Kir-6" target="EoahKKzWSE7YidUb9Kir-11" edge="1">
                    <mxGeometry relative="1" as="geometry"/>
                </mxCell>
                <mxCell id="EoahKKzWSE7YidUb9Kir-5" value="Add ProductId" style="edgeLabel;html=1;align=center;verticalAlign=middle;resizable=0;points=[];fontSize=12;" parent="EoahKKzWSE7YidUb9Kir-4" vertex="1" connectable="0">
                    <mxGeometry x="-0.5357" y="1" relative="1" as="geometry">
                        <mxPoint x="30" y="1" as="offset"/>
                    </mxGeometry>
                </mxCell>
                <mxCell id="EoahKKzWSE7YidUb9Kir-6" value="Basket" style="shape=hexagon;perimeter=hexagonPerimeter2;whiteSpace=wrap;html=1;fixedSize=1;rounded=0;labelBackgroundColor=none;sketch=0;strokeColor=default;strokeWidth=1;fontSize=12;fillColor=default;" parent="1" vertex="1">
                    <mxGeometry x="300" y="540" width="90" height="80" as="geometry"/>
                </mxCell>
                <mxCell id="EoahKKzWSE7YidUb9Kir-7" style="edgeStyle=elbowEdgeStyle;rounded=1;html=1;fontSize=12;startArrow=none;startFill=0;fillColor=default;" parent="1" source="EoahKKzWSE7YidUb9Kir-9" target="EoahKKzWSE7YidUb9Kir-10" edge="1">
                    <mxGeometry relative="1" as="geometry"/>
                </mxCell>
                <mxCell id="EoahKKzWSE7YidUb9Kir-8" value="ProductDeleted" style="edgeLabel;html=1;align=center;verticalAlign=middle;resizable=0;points=[];fontSize=12;" parent="EoahKKzWSE7YidUb9Kir-7" vertex="1" connectable="0">
                    <mxGeometry x="-0.2241" y="2" relative="1" as="geometry">
                        <mxPoint x="13" y="2" as="offset"/>
                    </mxGeometry>
                </mxCell>
                <mxCell id="EoahKKzWSE7YidUb9Kir-9" value="Catalog" style="shape=hexagon;perimeter=hexagonPerimeter2;whiteSpace=wrap;html=1;fixedSize=1;rounded=0;labelBackgroundColor=none;sketch=0;strokeColor=default;strokeWidth=1;fontSize=12;fillColor=default;" parent="1" vertex="1">
                    <mxGeometry x="80" y="640" width="90" height="80" as="geometry"/>
                </mxCell>
                <mxCell id="EoahKKzWSE7YidUb9Kir-10" value="Basket" style="shape=hexagon;perimeter=hexagonPerimeter2;whiteSpace=wrap;html=1;fixedSize=1;rounded=0;labelBackgroundColor=none;sketch=0;strokeColor=default;strokeWidth=1;fontSize=12;fillColor=default;" parent="1" vertex="1">
                    <mxGeometry x="300" y="640" width="90" height="80" as="geometry"/>
                </mxCell>
                <mxCell id="EoahKKzWSE7YidUb9Kir-11" value="DB" style="shape=cylinder3;whiteSpace=wrap;html=1;boundedLbl=1;backgroundOutline=1;size=15;rounded=0;labelBackgroundColor=none;sketch=0;strokeColor=default;strokeWidth=1;fontSize=12;fillColor=default;" parent="1" vertex="1">
                    <mxGeometry x="540" y="540" width="60" height="80" as="geometry"/>
                </mxCell>
                <mxCell id="EoahKKzWSE7YidUb9Kir-12" style="edgeStyle=elbowEdgeStyle;rounded=1;html=1;fontSize=12;startArrow=none;startFill=0;fillColor=default;" parent="1" source="EoahKKzWSE7YidUb9Kir-10" target="EoahKKzWSE7YidUb9Kir-14" edge="1">
                    <mxGeometry relative="1" as="geometry">
                        <mxPoint x="390" y="680" as="sourcePoint"/>
                    </mxGeometry>
                </mxCell>
                <mxCell id="EoahKKzWSE7YidUb9Kir-13" value="Remove ProductId" style="edgeLabel;html=1;align=center;verticalAlign=middle;resizable=0;points=[];fontSize=12;" parent="EoahKKzWSE7YidUb9Kir-12" vertex="1" connectable="0">
                    <mxGeometry x="-0.5357" y="1" relative="1" as="geometry">
                        <mxPoint x="28" y="1" as="offset"/>
                    </mxGeometry>
                </mxCell>
                <mxCell id="EoahKKzWSE7YidUb9Kir-14" value="DB" style="shape=cylinder3;whiteSpace=wrap;html=1;boundedLbl=1;backgroundOutline=1;size=15;rounded=0;labelBackgroundColor=none;sketch=0;strokeColor=default;strokeWidth=1;fontSize=12;fillColor=default;" parent="1" vertex="1">
                    <mxGeometry x="540" y="640" width="60" height="80" as="geometry"/>
                </mxCell>
                <mxCell id="EoahKKzWSE7YidUb9Kir-16" value="" style="endArrow=none;html=1;rounded=1;fontSize=12;fillColor=default;" parent="1" edge="1">
                    <mxGeometry width="50" height="50" relative="1" as="geometry">
                        <mxPoint x="-260" y="440" as="sourcePoint"/>
                        <mxPoint x="-210" y="390" as="targetPoint"/>
                    </mxGeometry>
                </mxCell>
                <mxCell id="EoahKKzWSE7YidUb9Kir-17" value="" style="endArrow=none;html=1;rounded=1;fontSize=12;fillColor=default;" parent="1" edge="1">
                    <mxGeometry width="50" height="50" relative="1" as="geometry">
                        <mxPoint x="1200" y="1450" as="sourcePoint"/>
                        <mxPoint x="1250" y="1400" as="targetPoint"/>
                    </mxGeometry>
                </mxCell>
                <mxCell id="EoahKKzWSE7YidUb9Kir-18" style="rounded=1;html=1;fontSize=12;startArrow=none;startFill=0;fillColor=default;entryX=0.004;entryY=0.611;entryDx=0;entryDy=0;entryPerimeter=0;" parent="1" source="EoahKKzWSE7YidUb9Kir-20" target="8-_6L_eXxhXoR8Gol0O_-1" edge="1">
                    <mxGeometry relative="1" as="geometry">
                        <mxPoint x="250" y="1070" as="targetPoint"/>
                    </mxGeometry>
                </mxCell>
                <mxCell id="EoahKKzWSE7YidUb9Kir-19" value="3: Publish(ProductCreated)" style="edgeLabel;html=1;align=center;verticalAlign=middle;resizable=0;points=[];fontSize=12;" parent="EoahKKzWSE7YidUb9Kir-18" vertex="1" connectable="0">
                    <mxGeometry x="-0.2241" y="2" relative="1" as="geometry">
                        <mxPoint x="-2" y="2" as="offset"/>
                    </mxGeometry>
                </mxCell>
                <mxCell id="EoahKKzWSE7YidUb9Kir-20" value="Catalog&lt;br&gt;(module)" style="shape=hexagon;perimeter=hexagonPerimeter2;whiteSpace=wrap;html=1;fixedSize=1;rounded=0;labelBackgroundColor=none;sketch=0;strokeColor=default;strokeWidth=1;fontSize=12;fillColor=default;" parent="1" vertex="1">
                    <mxGeometry x="250" y="970" width="90" height="80" as="geometry"/>
                </mxCell>
                <mxCell id="EoahKKzWSE7YidUb9Kir-21" style="rounded=1;html=1;fontSize=12;startArrow=none;startFill=0;fillColor=default;" parent="1" source="EoahKKzWSE7YidUb9Kir-23" target="EoahKKzWSE7YidUb9Kir-24" edge="1">
                    <mxGeometry relative="1" as="geometry"/>
                </mxCell>
                <mxCell id="EoahKKzWSE7YidUb9Kir-22" value="5: Add ProductId" style="edgeLabel;html=1;align=center;verticalAlign=middle;resizable=0;points=[];fontSize=12;" parent="EoahKKzWSE7YidUb9Kir-21" vertex="1" connectable="0">
                    <mxGeometry x="-0.5357" y="1" relative="1" as="geometry">
                        <mxPoint x="30" y="1" as="offset"/>
                    </mxGeometry>
                </mxCell>
                <mxCell id="EoahKKzWSE7YidUb9Kir-23" value="Basket&lt;br&gt;(module)" style="shape=hexagon;perimeter=hexagonPerimeter2;whiteSpace=wrap;html=1;fixedSize=1;rounded=0;labelBackgroundColor=none;sketch=0;strokeColor=default;strokeWidth=1;fontSize=12;fillColor=default;" parent="1" vertex="1">
                    <mxGeometry x="250" y="1190" width="90" height="80" as="geometry"/>
                </mxCell>
                <mxCell id="EoahKKzWSE7YidUb9Kir-24" value="DB" style="shape=cylinder3;whiteSpace=wrap;html=1;boundedLbl=1;backgroundOutline=1;size=15;rounded=0;labelBackgroundColor=none;sketch=0;strokeColor=default;strokeWidth=1;fontSize=12;fillColor=default;" parent="1" vertex="1">
                    <mxGeometry x="460" y="1190" width="60" height="80" as="geometry"/>
                </mxCell>
                <mxCell id="8-_6L_eXxhXoR8Gol0O_-1" value="MassTransit—in memory transport" style="shape=cylinder3;whiteSpace=wrap;html=1;boundedLbl=1;backgroundOutline=1;size=10.263157894736992;rounded=0;sketch=0;strokeColor=default;strokeWidth=1;fontSize=12;horizontal=0;rotation=90;" parent="1" vertex="1">
                    <mxGeometry x="315" y="940" width="40" height="360" as="geometry"/>
                </mxCell>
                <mxCell id="8-_6L_eXxhXoR8Gol0O_-2" style="rounded=1;html=1;fontSize=12;startArrow=none;startFill=0;fillColor=default;entryX=1.004;entryY=0.612;entryDx=0;entryDy=0;entryPerimeter=0;" parent="1" source="EoahKKzWSE7YidUb9Kir-23" target="8-_6L_eXxhXoR8Gol0O_-1" edge="1">
                    <mxGeometry relative="1" as="geometry">
                        <mxPoint x="139.55555555555543" y="1060" as="sourcePoint"/>
                        <mxPoint x="340" y="1160" as="targetPoint"/>
                    </mxGeometry>
                </mxCell>
                <mxCell id="8-_6L_eXxhXoR8Gol0O_-3" value="4: Consume(ProductCreated)" style="edgeLabel;html=1;align=center;verticalAlign=middle;resizable=0;points=[];fontSize=12;" parent="8-_6L_eXxhXoR8Gol0O_-2" vertex="1" connectable="0">
                    <mxGeometry x="-0.2241" y="2" relative="1" as="geometry">
                        <mxPoint x="2" y="-1" as="offset"/>
                    </mxGeometry>
                </mxCell>
                <mxCell id="8-_6L_eXxhXoR8Gol0O_-4" style="rounded=1;html=1;fontSize=12;startArrow=none;startFill=0;fillColor=default;" parent="1" source="EoahKKzWSE7YidUb9Kir-20" target="8-_6L_eXxhXoR8Gol0O_-6" edge="1">
                    <mxGeometry relative="1" as="geometry">
                        <mxPoint x="-130" y="900" as="sourcePoint"/>
                    </mxGeometry>
                </mxCell>
                <mxCell id="8-_6L_eXxhXoR8Gol0O_-5" value="2: Add Product" style="edgeLabel;html=1;align=center;verticalAlign=middle;resizable=0;points=[];fontSize=12;" parent="8-_6L_eXxhXoR8Gol0O_-4" vertex="1" connectable="0">
                    <mxGeometry x="-0.5357" y="1" relative="1" as="geometry">
                        <mxPoint x="30" y="1" as="offset"/>
                    </mxGeometry>
                </mxCell>
                <mxCell id="8-_6L_eXxhXoR8Gol0O_-6" value="DB" style="shape=cylinder3;whiteSpace=wrap;html=1;boundedLbl=1;backgroundOutline=1;size=15;rounded=0;labelBackgroundColor=none;sketch=0;strokeColor=default;strokeWidth=1;fontSize=12;fillColor=default;" parent="1" vertex="1">
                    <mxGeometry x="460" y="970" width="60" height="80" as="geometry"/>
                </mxCell>
                <mxCell id="ged0GpFz_LfEUQWVHcNl-2" style="edgeStyle=none;rounded=1;html=1;fontSize=12;startArrow=none;startFill=0;fillColor=default;" parent="1" source="EDP8aRKmK6DqaMj7xV6i-1" target="EoahKKzWSE7YidUb9Kir-20" edge="1">
                    <mxGeometry relative="1" as="geometry"/>
                </mxCell>
                <mxCell id="EDP8aRKmK6DqaMj7xV6i-1" value="Aggregator&lt;br&gt;(API)" style="shape=hexagon;perimeter=hexagonPerimeter2;whiteSpace=wrap;html=1;fixedSize=1;rounded=0;sketch=0;strokeWidth=1;fontSize=12;strokeColor=default;" parent="1" vertex="1">
                    <mxGeometry x="110" y="970" width="90" height="80" as="geometry"/>
                </mxCell>
                <mxCell id="EDP8aRKmK6DqaMj7xV6i-2" style="edgeStyle=elbowEdgeStyle;rounded=1;html=1;fontSize=12;startArrow=none;startFill=0;fillColor=default;" parent="1" source="EDP8aRKmK6DqaMj7xV6i-4" target="EDP8aRKmK6DqaMj7xV6i-1" edge="1">
                    <mxGeometry relative="1" as="geometry"/>
                </mxCell>
                <mxCell id="EDP8aRKmK6DqaMj7xV6i-3" value="1: POST /products" style="edgeLabel;html=1;align=center;verticalAlign=middle;resizable=0;points=[];fontSize=11;" parent="EDP8aRKmK6DqaMj7xV6i-2" vertex="1" connectable="0">
                    <mxGeometry x="-0.362" relative="1" as="geometry">
                        <mxPoint x="26" as="offset"/>
                    </mxGeometry>
                </mxCell>
                <mxCell id="EDP8aRKmK6DqaMj7xV6i-4" value="Client" style="sketch=0;pointerEvents=1;shadow=0;dashed=0;html=1;strokeColor=default;fillColor=default;aspect=fixed;labelPosition=center;verticalLabelPosition=bottom;verticalAlign=top;align=center;outlineConnect=0;shape=mxgraph.vvd.web_browser;rounded=0;labelBackgroundColor=default;strokeWidth=1;fontSize=12;" parent="1" vertex="1">
                    <mxGeometry x="-80" y="992.25" width="50" height="35.5" as="geometry"/>
                </mxCell>
                <mxCell id="ged0GpFz_LfEUQWVHcNl-1" value="600px width (MAX)" style="rounded=0;whiteSpace=wrap;html=1;align=center;fontStyle=1" parent="1" vertex="1">
                    <mxGeometry x="-80" y="880" width="600" height="30" as="geometry"/>
                </mxCell>
            </root>
        </mxGraphModel>
    </diagram>
</mxfile>